<?xml version="1.0" encoding="UTF-8" standalone="no"?>
<!-- Created with Inkscape (http://www.inkscape.org/) -->

<svg
   width="299.55811mm"
   height="36.172848mm"
   viewBox="0 0 299.5581 36.172848"
   version="1.1"
   id="svg1"
   inkscape:version="1.4.3 (0d15f75, 2025-12-25)"
   sodipodi:docname="4lammast.svg"
   xmlns:inkscape="http://www.inkscape.org/namespaces/inkscape"
   xmlns:sodipodi="http://sodipodi.sourceforge.net/DTD/sodipodi-0.dtd"
   xmlns:xlink="http://www.w3.org/1999/xlink"
   xmlns="http://www.w3.org/2000/svg"
   xmlns:svg="http://www.w3.org/2000/svg">
  <sodipodi:namedview
     id="namedview1"
     pagecolor="#ffffff"
     bordercolor="#000000"
     borderopacity="0.25"
     inkscape:showpageshadow="2"
     inkscape:pageopacity="0.0"
     inkscape:pagecheckerboard="0"
     inkscape:deskcolor="#d1d1d1"
     inkscape:document-units="mm"
     inkscape:zoom="1.0167041"
     inkscape:cx="508.99766"
     inkscape:cy="138.19164"
     inkscape:window-width="1920"
     inkscape:window-height="1046"
     inkscape:window-x="-11"
     inkscape:window-y="-11"
     inkscape:window-maximized="1"
     inkscape:current-layer="layer1" />
  <defs
     id="defs1">
    <linearGradient
       id="linearGradient6"
       inkscape:collect="always">
      <stop
         style="stop-color:#000000;stop-opacity:1;"
         offset="0"
         id="stop6" />
      <stop
         style="stop-color:#797979;stop-opacity:1;"
         offset="1"
         id="stop7" />
    </linearGradient>
    <linearGradient
       id="linearGradient3"
       inkscape:collect="always">
      <stop
         style="stop-color:#000000;stop-opacity:1;"
         offset="0"
         id="stop4" />
      <stop
         style="stop-color:#797979;stop-opacity:1;"
         offset="1"
         id="stop5" />
    </linearGradient>
    <linearGradient
       id="linearGradient2"
       inkscape:collect="always">
      <stop
         style="stop-color:#00ffff;stop-opacity:1;"
         offset="0"
         id="stop2" />
      <stop
         style="stop-color:#00acff;stop-opacity:1;"
         offset="1"
         id="stop3" />
    </linearGradient>
    <radialGradient
       inkscape:collect="always"
       xlink:href="#linearGradient2"
       id="radialGradient3"
       cx="20.949022"
       cy="136.23372"
       fx="20.949022"
       fy="136.23372"
       r="18.086424"
       gradientUnits="userSpaceOnUse" />
    <linearGradient
       inkscape:collect="always"
       xlink:href="#linearGradient3"
       id="linearGradient5"
       x1="-104.04849"
       y1="106.36534"
       x2="-75.746341"
       y2="106.36534"
       gradientUnits="userSpaceOnUse" />
    <linearGradient
       inkscape:collect="always"
       xlink:href="#linearGradient6"
       id="linearGradient7"
       x1="41.425813"
       y1="136.36739"
       x2="302.42069"
       y2="136.36739"
       gradientUnits="userSpaceOnUse" />
  </defs>
  <g
     inkscape:groupmode="layer"
     id="layer2"
     inkscape:label="Kiht 2"
     transform="translate(-2.8625991,-118.14729)">
    <rect
       style="fill:url(#radialGradient3);fill-rule:evenodd;stroke:#000000;stroke-width:0;stroke-miterlimit:2.1"
       id="rect2"
       width="36.172848"
       height="36.172848"
       x="2.8625991"
       y="118.14729" />
  </g>
  <g
     inkscape:label="Kiht 1"
     inkscape:groupmode="layer"
     id="layer1"
     transform="translate(-2.8625991,-118.14729)">
    <path
       d="m 64.34534,151.36318 q -2.802929,1.1628 -8.805663,2.08426 -5.531444,0.85565 -9.028904,0.85565 -2.505273,0 -3.596679,-0.68012 -1.488281,-0.92147 -1.488281,-3.37871 l 0.496094,-7.26205 q 0.644922,-10.04837 0.644922,-22.29073 0,-0.9434 0.694531,-1.60159 0.719335,-0.6582 1.761132,-0.6582 1.066602,0 1.761132,0.6582 0.719336,0.65819 0.719336,1.60159 0,12.39593 -0.669726,22.55401 l -0.322461,3.33484 q -0.198438,1.82099 -0.148828,3.22513 6.474022,0.0658 16.37109,-2.69858 0.421681,-0.1097 0.79375,-0.1097 1.066601,0 1.785937,0.74594 0.620118,0.68014 0.620118,1.55773 0,1.40414 -1.5875,2.06233 z m 33.560736,1.55772 q -2.28203,0 -3.968749,-5.17778 -0.644922,-1.97456 -1.612304,-6.91099 -2.530079,0.30715 -6.622851,1.09698 l -6.598046,1.20668 q -1.240234,2.8741 -4.2416,8.40291 -0.79375,1.22862 -2.158008,1.22862 -0.992187,0 -1.785937,-0.63625 -0.768945,-0.63626 -0.768945,-1.57966 0,-1.05311 3.745507,-8.00799 -0.421679,-0.57043 -0.421679,-1.31638 0,-1.77711 2.430859,-2.28173 2.827734,-4.69509 7.143748,-10.79433 5.87871,-8.31514 7.317382,-8.31514 1.95957,0 2.678905,2.41336 l 1.562695,7.37174 3.695898,15.24809 1.413867,3.46647 q 0.719332,1.77712 0.719332,2.36949 0,0.9434 -0.768941,1.57966 -0.768946,0.63625 -1.761133,0.63625 z m -8.756053,-25.07707 -7.094139,10.11419 q 3.001366,-0.68013 9.103318,-1.64547 z m 55.215227,26.23987 q -1.33945,0 -2.20761,-1.22862 -0.74415,-1.05311 -1.33946,-3.51035 l -0.89297,-3.77363 q -1.01699,-3.51035 -3.22461,-15.48942 l -4.96093,13.22963 -1.46348,4.16854 q -0.89297,2.47919 -1.86035,4.05885 -1.0418,1.66741 -2.80294,1.66741 -1.46347,0 -2.30683,-1.40414 -0.5457,-0.92147 -0.99218,-2.34755 l -0.71934,-2.4353 q -2.50527,-7.74472 -4.41523,-16.58641 l -0.89298,3.92721 -3.19979,11.58415 q -0.19845,2.04039 -1.24024,6.03342 -0.74415,1.71129 -2.45566,1.71129 -1.21543,0 -1.93477,-0.76788 -0.62012,-0.6582 -0.62012,-1.62354 0,-3.66393 1.71153,-8.99527 l 2.72851,-8.8417 1.43867,-6.91101 q 1.09141,-4.84867 2.30683,-6.34057 0.9922,-1.2725 2.45567,-1.2725 1.61231,0 2.40606,1.62354 0.96738,1.95263 2.08359,7.9641 1.31465,7.21817 4.09277,15.62107 3.6711,-8.44678 6.35,-17.59564 l 0.74414,-3.20319 q 0.44649,-1.93069 1.16582,-3.11544 0.96738,-1.62353 2.65411,-1.62353 2.1332,0 3.24941,3.64198 0.39687,1.25057 0.96738,5.17777 1.46347,9.91674 3.64629,16.93744 l 1.21542,3.77363 q 0.94259,3.02768 0.94259,3.72975 0,0.94341 -0.81856,1.57965 -0.79375,0.63626 -1.81074,0.63626 z m 44.84686,0 q -1.33945,0 -2.20761,-1.22862 -0.74415,-1.05311 -1.33946,-3.51035 l -0.89297,-3.77363 q -1.01698,-3.51035 -3.22461,-15.48942 l -4.96093,13.22963 -1.46347,4.16854 q -0.89298,2.47919 -1.86036,4.05885 -1.0418,1.66741 -2.80293,1.66741 -1.46348,0 -2.30683,-1.40414 -0.54571,-0.92147 -0.9922,-2.34755 l -0.71933,-2.4353 q -2.50527,-7.74472 -4.41523,-16.58641 l -0.89297,3.92721 -3.19981,11.58415 q -0.19843,2.04039 -1.24022,6.03342 -0.74415,1.71129 -2.45567,1.71129 -1.21543,0 -1.93477,-0.76788 -0.62011,-0.6582 -0.62011,-1.62354 0,-3.66393 1.71152,-8.99527 l 2.72852,-8.8417 1.43867,-6.91101 q 1.09141,-4.84867 2.30683,-6.34057 0.99219,-1.2725 2.45566,-1.2725 1.61231,0 2.40606,1.62354 0.96738,1.95263 2.08359,7.9641 1.31465,7.21817 4.09278,15.62107 3.67109,-8.44678 6.35,-17.59564 l 0.74414,-3.20319 q 0.44648,-1.93069 1.16582,-3.11544 0.96738,-1.62353 2.6541,-1.62353 2.1332,0 3.24941,3.64198 0.39687,1.25057 0.96738,5.17777 1.46348,9.91674 3.6463,16.93744 l 1.21542,3.77363 q 0.94258,3.02768 0.94258,3.72975 0,0.94341 -0.81855,1.57965 -0.79376,0.63626 -1.81075,0.63626 z m 35.54511,-1.1628 q -2.28203,0 -3.96875,-5.17778 -0.64492,-1.97456 -1.61231,-6.91099 -2.53008,0.30715 -6.62285,1.09698 l -6.59804,1.20668 q -1.24024,2.8741 -4.2416,8.40291 -0.79375,1.22862 -2.158,1.22862 -0.99219,0 -1.78594,-0.63625 -0.76895,-0.63626 -0.76895,-1.57966 0,-1.05311 3.7455,-8.00799 -0.42167,-0.57043 -0.42167,-1.31638 0,-1.77711 2.43085,-2.28173 2.82774,-4.69509 7.14375,-10.79433 5.87871,-8.31514 7.31738,-8.31514 1.95957,0 2.67891,2.41336 l 1.5627,7.37174 3.69589,15.24809 1.41387,3.46647 q 0.71934,1.77712 0.71934,2.36949 0,0.9434 -0.76895,1.57966 -0.76894,0.63625 -1.76113,0.63625 z m -8.75606,-25.07707 -7.09413,10.11419 q 3.00136,-0.68013 9.10331,-1.64547 z m 18.23146,18.95589 q -0.0248,-0.92146 0.69453,-1.49189 0.74414,-0.59238 1.81074,-0.59238 1.21544,0 2.1332,1.22862 1.26504,1.66742 2.25724,2.2598 2.10839,1.22862 6.12675,1.22862 3.84473,0 7.14375,-1.46996 4.21679,-1.88682 4.21679,-5.24359 0,-2.7644 -3.54706,-4.366 -3.00137,-1.3822 -7.41661,-1.4919 -3.91913,-0.13164 -6.67246,-1.51384 -3.52226,-1.77712 -3.52226,-5.09001 0,-3.90526 5.01055,-7.1304 4.7873,-3.04962 9.89707,-3.04962 2.40605,0 5.43222,0.72402 4.01836,0.9434 4.01836,2.41336 0,1.93069 -2.23242,1.93069 -0.99219,0 -3.47266,-0.46073 -2.48046,-0.48268 -3.84473,-0.46073 -3.86952,0.0438 -6.57324,1.68935 -2.77812,1.68936 -2.77812,4.10272 0,1.821 3.67109,2.56695 1.36426,0.28521 5.2834,0.52655 5.68027,0.37298 8.88007,3.15932 2.92696,2.545 2.92696,6.20893 0,5.22165 -5.45704,8.33709 -4.73769,2.69858 -10.98846,2.69858 -4.53926,0 -8.30958,-1.53578 -4.61367,-1.88681 -4.68808,-5.17777 z m 65.68281,-22.24685 q -1.83555,0 -5.65548,-0.26328 -3.7207,-0.24134 -5.65546,-0.21939 h -1.76113 q 0.0744,3.02767 0.66972,9.82898 0.54571,6.34057 0.54571,9.85092 0,0.76789 0.17363,2.32561 0.17363,1.55772 0.17363,2.34755 0,1.4919 -0.54571,2.56694 -0.69453,1.44803 -2.158,1.44803 -0.99218,0 -1.78594,-0.61431 -0.79375,-0.61432 -0.79375,-1.57966 0,-0.3291 0.12402,-0.98729 0.12403,-0.6582 0.12403,-0.98729 0,-1.07504 -0.17364,-3.22514 -0.14882,-2.15009 -0.14882,-3.24707 0,-3.13738 -0.57051,-8.81975 -0.59532,-6.14312 -0.66973,-8.81977 l -2.25722,0.022 q -5.43222,0 -8.53281,-0.70207 -2.00918,-0.46073 -2.00918,-2.17203 0,-0.89952 0.64492,-1.57966 0.74414,-0.76789 1.90996,-0.70206 0.86816,0.0438 3.96875,0.3949 2.48046,0.26329 4.01836,0.26329 1.48828,0 4.51445,-0.0438 3.02617,-0.0658 4.51445,-0.0658 1.90996,0 5.65547,0.24134 3.77031,0.24134 5.68028,0.24134 1.06659,0 1.78593,0.65819 0.71933,0.63625 0.71933,1.60159 0,0.94342 -0.71933,1.60161 -0.71934,0.63624 -1.78593,0.63624 z"
       id="text1"
       style="font-size:48.4645px;font-family:'Comic Sans MS';-inkscape-font-specification:'Comic Sans MS';fill-rule:evenodd;stroke:#000000;stroke-width:0;stroke-miterlimit:2.1;fill:url(#linearGradient7)"
       aria-label="LAMMAST" />
    <path
       d="m -81.327402,114.55089 v 9.17773 q 0,2.30684 -2.257227,2.30684 -2.629296,0 -2.629296,-3.59668 0,-0.44649 0.04961,-1.26504 0.04961,-0.81856 0.04961,-1.11621 l -0.0248,-5.63067 -10.938867,-0.27285 q -3.398238,0 -4.712888,-0.22324 -2.25723,-0.37207 -2.25723,-1.76113 0,-1.11622 1.36426,-2.82774 l 2.13321,-2.53008 12.203897,-17.809763 q 1.661914,-2.306835 4.216797,-2.306835 2.80293,0 2.80293,2.430859 v 20.612699 q 0.42168,-0.0248 1.016992,-0.0248 4.564063,0 4.564063,2.45567 0,1.78593 -1.885157,2.25722 -0.843359,0.22324 -3.695898,0.12403 z m -4.812109,-20.98477 q -6.622852,10.5668 -10.343555,15.82539 l 10.343555,0.24805 z"
       id="text2"
       style="font-size:50.8px;font-family:'Comic Sans MS';-inkscape-font-specification:'Comic Sans MS';fill-rule:evenodd;stroke:#000000;stroke-width:0;stroke-miterlimit:2.1;fill:url(#linearGradient5);fill-opacity:1"
       transform="rotate(-46.72527)"
       aria-label="4" />
  </g>
</svg>
