<?xml version="1.0" encoding="UTF-8" standalone="no"?>
<!-- Created with Inkscape (http://www.inkscape.org/) -->

<svg
   width="125mm"
   height="125mm"
   viewBox="0 0 124.99999 125"
   version="1.1"
   id="svg1"
   inkscape:version="1.4.3 (0d15f75, 2025-12-25)"
   sodipodi:docname="lambamoistatus_logo.svg"
   xmlns:inkscape="http://www.inkscape.org/namespaces/inkscape"
   xmlns:sodipodi="http://sodipodi.sourceforge.net/DTD/sodipodi-0.dtd"
   xmlns="http://www.w3.org/2000/svg"
   xmlns:svg="http://www.w3.org/2000/svg">
  <sodipodi:namedview
     id="namedview1"
     pagecolor="#ffffff"
     bordercolor="#000000"
     borderopacity="0.25"
     inkscape:showpageshadow="2"
     inkscape:pageopacity="0.0"
     inkscape:pagecheckerboard="0"
     inkscape:deskcolor="#d1d1d1"
     inkscape:document-units="mm"
     inkscape:zoom="0.71891835"
     inkscape:cx="493.10189"
     inkscape:cy="449.98156"
     inkscape:window-width="1920"
     inkscape:window-height="1046"
     inkscape:window-x="-11"
     inkscape:window-y="-11"
     inkscape:window-maximized="1"
     inkscape:current-layer="layer1"
     showguides="false" />
  <defs
     id="defs1">
    <filter
       inkscape:menu-tooltip="Glowing metal texture"
       inkscape:menu="Bevels"
       inkscape:label="Glowing Metal"
       style="color-interpolation-filters:sRGB;"
       id="filter39"
       x="-0.32858823"
       y="-0.32234127"
       width="1.6571765"
       height="1.6446825">
      <feBlend
         in2="SourceGraphic"
         result="result5"
         mode="multiply"
         in="result10"
         id="feBlend37" />
      <feComposite
         in2="SourceGraphic"
         in="result5"
         result="fbSourceGraphic"
         operator="over"
         id="feComposite37" />
      <feGaussianBlur
         stdDeviation="3"
         result="result10"
         id="feGaussianBlur37" />
      <feGaussianBlur
         result="result9"
         stdDeviation="9"
         id="feGaussianBlur38" />
      <feSpecularLighting
         in="result9"
         result="result1"
         lighting-color="rgb(255,255,255)"
         surfaceScale="1"
         specularConstant="2"
         specularExponent="60"
         id="feSpecularLighting38">
        <fePointLight
           x="-5000"
           y="-10000"
           z="20000"
           id="fePointLight38" />
      </feSpecularLighting>
      <feComposite
         in2="fbSourceGraphic"
         in="result1"
         result="result2"
         operator="in"
         id="feComposite38" />
      <feGaussianBlur
         result="result9"
         stdDeviation="1"
         id="feGaussianBlur39" />
      <feComposite
         in="result9"
         result="result4"
         operator="arithmetic"
         k2="2"
         k3="0.8"
         in2="fbSourceGraphic"
         id="feComposite39" />
      <feBlend
         in="result4"
         mode="multiply"
         id="feBlend39" />
    </filter>
    <filter
       inkscape:menu-tooltip="Transparent plastic with deep colors"
       inkscape:menu="Bevels"
       inkscape:label="Deep Colors Plastic"
       style="color-interpolation-filters:sRGB;"
       id="filter5"
       x="-1.5111771"
       y="-0.95880184"
       width="4.0223542"
       height="2.9176037">
      <feGaussianBlur
         in="SourceGraphic"
         result="result6"
         stdDeviation="10"
         id="feGaussianBlur1" />
      <feComposite
         in2="SourceGraphic"
         in="result6"
         operator="xor"
         id="feComposite1" />
      <feGaussianBlur
         result="result2"
         stdDeviation="9"
         id="feGaussianBlur2" />
      <feComposite
         in2="SourceGraphic"
         operator="atop"
         result="result91"
         id="feComposite2" />
      <feComposite
         result="result4"
         in="result2"
         operator="xor"
         in2="result91"
         id="feComposite3" />
      <feGaussianBlur
         in="result4"
         result="result3"
         stdDeviation="5"
         id="feGaussianBlur3" />
      <feSpecularLighting
         lighting-color="rgb(255,255,255)"
         in="result3"
         result="result5"
         specularExponent="35"
         specularConstant="2"
         surfaceScale="12"
         id="feSpecularLighting3">
        <feDistantLight
           elevation="45"
           azimuth="235"
           id="feDistantLight3" />
      </feSpecularLighting>
      <feComposite
         in2="result5"
         in="SourceGraphic"
         k3="0.7"
         k2="0.9"
         operator="arithmetic"
         result="result7"
         id="feComposite4" />
      <feGaussianBlur
         in="result7"
         result="result10"
         stdDeviation="1"
         id="feGaussianBlur4" />
      <feComposite
         in="result11"
         operator="in"
         in2="SourceGraphic"
         id="feComposite5" />
    </filter>
  </defs>
  <g
     inkscape:label="Kiht 1"
     inkscape:groupmode="layer"
     id="layer1"
     transform="translate(-5.9832799,-20.564253)">
    <g
       id="text1"
       style="font-size:14.1111px;font-family:'Comic Sans MS';-inkscape-font-specification:'Comic Sans MS';fill-rule:evenodd;stroke:#000000;stroke-width:0;stroke-miterlimit:2.1"
       aria-label="lambamõistatus">
      <path
         d="m 7.4922305,138.53542 -0.1033527,3.42443 q 0,0.54432 -0.055122,1.59852 -0.068902,0.68902 -0.6752382,0.68902 -0.6752382,0 -0.6752382,-0.7028 0,-0.83371 0.075792,-2.50114 0.075792,-1.67431 0.075792,-2.50803 0,-1.08864 0.034451,-2.48735 0.034451,-1.4056 0.034451,-2.49425 0,-0.68902 0.6752382,-0.68902 0.6821284,0 0.6821284,0.68902 0,1.08865 -0.034451,2.49425 -0.034451,1.39871 -0.034451,2.48735 z"
         id="path69" />
      <path
         style="font-size:19.4028px"
         d="m 17.365883,144.5764 q -0.180006,0 -0.653708,-0.41686 -0.426331,-0.38844 -0.634759,-0.6916 -0.909506,0.49264 -1.60111,0.73897 -0.691604,0.2558 -1.155831,0.2558 -2.216921,0 -3.230642,-1.25057 -0.9568761,-1.17478 -0.9568761,-3.60013 0,-2.29272 1.5726881,-3.92225 1.582162,-1.62953 3.770661,-1.62953 0.82424,0 1.847435,0.42633 1.288467,0.53055 1.288467,1.27899 0,0.2558 -0.189481,0.45476 -0.09474,0.36001 -0.151584,1.18425 -0.04737,0.82424 -0.05684,2.11271 -0.0095,1.17478 0.161058,1.85691 0.09474,0.41685 0.596864,1.66742 0.06632,0.17054 0.217902,0.50213 l 0.05684,0.16106 q 0,0.37896 -0.265272,0.62528 -0.265273,0.24633 -0.615812,0.24633 z m -1.970597,-6.58445 q 0,-0.40738 0.04737,-0.88108 0.05685,-0.48318 0.161059,-1.0232 -0.350539,-0.18 -0.606338,-0.26527 -0.246324,-0.0853 -0.397909,-0.0853 -1.468473,0 -2.539038,1.2032 -1.061091,1.19373 -1.061091,2.75694 0,1.55374 0.549494,2.33061 0.549493,0.77687 1.64848,0.77687 0.909506,0 1.544266,-0.33159 0.341064,-0.18 0.956876,-0.72002 -0.303169,-2.51062 -0.303169,-3.76119 z m 16.532171,6.7455 q -0.77687,0 -0.909507,-0.82424 -0.170532,-1.04214 -0.341064,-2.93694 l -0.322117,-2.93695 q -0.09474,-0.65371 -0.322117,-1.27899 -0.322117,-0.85266 -0.701078,-0.85266 -0.350539,0 -1.307415,0.59686 -0.909506,0.54949 -1.193727,0.88108 -0.0095,0.89056 0.04737,1.78112 l 0.284221,2.52956 q 0.180006,1.4969 0.180006,2.47272 0,0.41686 -0.265272,0.68213 -0.255799,0.27475 -0.663182,0.27475 -0.407383,0 -0.672655,-0.27475 -0.255799,-0.26527 -0.255799,-0.68213 0,-1.14635 -0.236851,-3.38222 -0.227376,-2.24535 -0.227376,-3.3917 0,-1.00425 -0.284221,-1.56322 -0.663182,0.30317 -1.345311,0.9853 l -1.117935,1.25057 q -0.151584,0.22738 -0.483175,0.59687 0,0.56844 -0.104214,1.6769 -0.104215,1.10846 -0.104215,1.639 0,0.28422 0.08527,0.79582 0.09474,0.5116 0.09474,0.73898 0,0.38843 -0.293695,0.6537 -0.284221,0.26528 -0.672656,0.26528 -1.070564,0 -1.070564,-2.43483 0,-0.56844 0.104214,-1.69585 0.104214,-1.12741 0.104214,-1.69585 0,-0.50212 -0.09474,-1.50637 -0.08527,-1.00424 -0.08527,-1.51584 0,-2.1506 0.96635,-2.1506 0.369487,0 0.672656,0.32211 0.312643,0.32212 0.312643,0.70108 0,0.18001 -0.04737,0.55897 -0.04737,0.37896 -0.04737,0.57791 l 0.01895,0.99477 q 0.49265,-1.01372 1.449526,-1.82848 0.956876,-0.82424 1.629532,-0.82424 1.487422,0 2.046389,1.47795 0.521071,-0.69161 1.241097,-1.03267 0.720026,-0.35054 1.64848,-0.35054 1.582162,0 2.160077,1.70532 0.113689,0.34107 0.388435,2.6622 0.265273,1.62954 0.68213,5.42862 0.02842,0.37896 -0.255799,0.64423 -0.28422,0.26527 -0.691603,0.26527 z"
         id="path70" />
      <path
         d="m 37.827182,144.2405 q -1.054198,0 -1.915472,-0.41341 -0.220485,0.33073 -0.537434,0.33073 -0.261827,0 -0.447862,-0.18604 -0.179145,-0.17914 -0.179145,-0.45475 0,-0.17915 0.01378,-0.53055 0.02067,-0.35139 0.02067,-0.53054 0,-0.73036 -0.04134,-2.18419 -0.03445,-1.46072 -0.03445,-2.19108 0,-0.50298 0.0069,-1.90169 0.0069,-1.4056 0.0069,-1.91547 0,-0.41341 0.172255,-0.74414 0.227376,-0.4203 0.627007,-0.4203 0.516764,0 0.516764,0.59944 0,0.0965 -0.03445,0.2825 -0.03445,0.18604 -0.03445,0.2825 l -0.02067,1.50895 -0.01378,1.757 q 0.599446,-0.40652 1.136881,-0.60634 0.544324,-0.2067 1.019747,-0.2067 1.48139,0 2.404675,1.13688 0.868163,1.06798 0.868163,2.62516 0,1.57096 -1.012857,2.6665 -1.012857,1.09554 -2.521808,1.09554 z m 0.261827,-6.22184 q -0.564995,0 -1.157551,0.31695 -0.289388,0.15847 -0.992187,0.68213 l -0.01378,1.192 0.0069,1.07487 0.0069,1.12999 q 0.330729,0.15158 0.930175,0.38585 0.427192,0.13091 0.957736,0.13091 0.999077,0 1.639864,-0.7028 0.640788,-0.70279 0.640788,-1.7501 0,-1.02664 -0.516764,-1.71566 -0.558105,-0.74414 -1.502061,-0.74414 z"
         id="path71" />
      <path
         style="font-size:19.4028px"
         d="m 50.739407,144.5764 q -0.180006,0 -0.653707,-0.41686 -0.426331,-0.38844 -0.63476,-0.6916 -0.909506,0.49264 -1.60111,0.73897 -0.691604,0.2558 -1.155831,0.2558 -2.216921,0 -3.230642,-1.25057 -0.956876,-1.17478 -0.956876,-3.60013 0,-2.29272 1.572688,-3.92225 1.582162,-1.62953 3.770661,-1.62953 0.82424,0 1.847435,0.42633 1.288467,0.53055 1.288467,1.27899 0,0.2558 -0.189481,0.45476 -0.09474,0.36001 -0.151584,1.18425 -0.04737,0.82424 -0.05684,2.11271 -0.0095,1.17478 0.161058,1.85691 0.09474,0.41685 0.596864,1.66742 0.06632,0.17054 0.217902,0.50213 l 0.05684,0.16106 q 0,0.37896 -0.265272,0.62528 -0.265273,0.24633 -0.615812,0.24633 z m -1.970597,-6.58445 q 0,-0.40738 0.04737,-0.88108 0.05684,-0.48318 0.161058,-1.0232 -0.350539,-0.18 -0.606338,-0.26527 -0.246324,-0.0853 -0.397909,-0.0853 -1.468473,0 -2.539038,1.2032 -1.06109,1.19373 -1.06109,2.75694 0,1.55374 0.549493,2.33061 0.549493,0.77687 1.64848,0.77687 0.909506,0 1.544266,-0.33159 0.341065,-0.18 0.956876,-0.72002 -0.303169,-2.51062 -0.303169,-3.76119 z m 16.53217,6.7455 q -0.776869,0 -0.909506,-0.82424 -0.170532,-1.04214 -0.341065,-2.93694 l -0.322116,-2.93695 q -0.09474,-0.65371 -0.322117,-1.27899 -0.322117,-0.85266 -0.701078,-0.85266 -0.350539,0 -1.307415,0.59686 -0.909506,0.54949 -1.193727,0.88108 -0.0095,0.89056 0.04737,1.78112 l 0.284221,2.52956 q 0.180006,1.4969 0.180006,2.47272 0,0.41686 -0.265272,0.68213 -0.255799,0.27475 -0.663182,0.27475 -0.407383,0 -0.672656,-0.27475 -0.255798,-0.26527 -0.255798,-0.68213 0,-1.14635 -0.236851,-3.38222 -0.227377,-2.24535 -0.227377,-3.3917 0,-1.00425 -0.28422,-1.56322 -0.663182,0.30317 -1.345312,0.9853 l -1.117934,1.25057 q -0.151585,0.22738 -0.483175,0.59687 0,0.56844 -0.104215,1.6769 -0.104214,1.10846 -0.104214,1.639 0,0.28422 0.08527,0.79582 0.09474,0.5116 0.09474,0.73898 0,0.38843 -0.293694,0.6537 -0.284221,0.26528 -0.672656,0.26528 -1.070565,0 -1.070565,-2.43483 0,-0.56844 0.104215,-1.69585 0.104214,-1.12741 0.104214,-1.69585 0,-0.50212 -0.09474,-1.50637 -0.08527,-1.00424 -0.08527,-1.51584 0,-2.1506 0.96635,-2.1506 0.369487,0 0.672656,0.32211 0.312642,0.32212 0.312642,0.70108 0,0.18001 -0.04737,0.55897 -0.04737,0.37896 -0.04737,0.57791 l 0.01895,0.99477 q 0.492649,-1.01372 1.449526,-1.82848 0.956876,-0.82424 1.629532,-0.82424 1.487421,0 2.046389,1.47795 0.521071,-0.69161 1.241097,-1.03267 0.720026,-0.35054 1.64848,-0.35054 1.582162,0 2.160077,1.70532 0.113688,0.34107 0.388435,2.6622 0.265273,1.62954 0.68213,5.42862 0.02842,0.37896 -0.255799,0.64423 -0.284221,0.26527 -0.691604,0.26527 z"
         id="path72" />
      <path
         d="m 70.608148,144.35763 q -1.157551,0 -1.991264,-0.85438 -0.930175,-0.95085 -0.978406,-2.55626 -0.04134,-1.55718 0.785481,-2.74229 0.964626,-1.39871 2.687172,-1.39871 1.378038,0 2.087727,1.2609 0.564995,1.01975 0.544324,2.45291 -0.02067,1.52962 -0.799261,2.61138 -0.881944,1.22645 -2.335773,1.22645 z m 0.413411,-6.15293 q -1.012857,-0.007 -1.577852,0.96462 -0.447863,0.77859 -0.447863,1.77767 0,0.99908 0.544325,1.55718 0.454752,0.46164 1.067979,0.46164 0.716579,0 1.233343,-0.52365 0.585666,-0.57878 0.620117,-1.56407 0.09646,-2.6665 -1.440049,-2.67339 z m -0.888834,-4.96094 q 0.689019,0 1.10932,0.39963 l 0.571885,0.73036 q 0.323839,0.39963 0.771701,0.39963 0.392741,0 0.585666,-0.25493 l 0.316949,-0.60634 0.137803,-0.40652 q 0.09646,-0.19982 0.413411,-0.19982 0.516764,0 0.516764,0.50988 0,0.24804 -0.296278,0.83371 -0.275607,0.55122 -0.475422,0.75792 -0.385851,0.39274 -0.985297,0.39274 -0.902614,0 -1.412488,-0.39274 -0.186035,-0.14469 -0.606336,-0.73725 -0.289388,-0.39274 -0.647678,-0.39274 -0.213596,0 -0.38585,0.0827 -0.165365,0.0758 -0.289388,0.23427 l -0.303168,0.58566 q -0.172255,0.31006 -0.447862,0.31006 -0.213596,0 -0.37207,-0.1378 -0.158475,-0.14469 -0.158475,-0.35829 0,-0.0758 0.02067,-0.15847 0.192925,-0.7028 0.695909,-1.13689 0.537434,-0.45475 1.240233,-0.45475 z m 6.587014,1.98438 q -0.330728,0 -0.571885,-0.23427 -0.241156,-0.23427 -0.241156,-0.565 0,-0.33072 0.241156,-0.56499 0.241157,-0.23427 0.571885,-0.23427 0.330729,0 0.564996,0.23427 0.241156,0.23427 0.241156,0.56499 0,0.33073 -0.241156,0.565 -0.234267,0.23427 -0.564996,0.23427 z m 0.310059,5.59483 q 0,0.41341 0.02067,1.24023 0.02756,0.81993 0.02756,1.23334 0,0.30317 -0.186035,0.4961 -0.186035,0.19292 -0.489203,0.19292 -0.296278,0 -0.489203,-0.19292 -0.186035,-0.19293 -0.186035,-0.4961 0,-0.41341 -0.02756,-1.23334 -0.02067,-0.82682 -0.02067,-1.24023 0,-0.64768 0.0689,-1.61231 0.0689,-0.97151 0.0689,-1.61919 0,-0.31006 0.186035,-0.50298 0.192925,-0.19293 0.489203,-0.19293 0.296278,0 0.482313,0.19293 0.192925,0.19292 0.192925,0.50298 0,0.64768 -0.0689,1.61919 -0.0689,0.96463 -0.0689,1.61231 z"
         id="path73" />
      <path
         style="font-size:18.3444px"
         d="m 85.692132,137.05405 q -0.492647,0 -0.689706,-0.33142 -0.134359,-0.23289 -0.232888,-0.96738 -0.671792,0.17019 -2.06912,0.627 -1.442113,0.57327 -1.45107,1.41525 0.268716,0.0985 0.528476,0.14331 2.060162,0.36725 3.063372,1.01217 1.460027,0.94051 1.460027,2.723 0,1.46002 -1.262968,2.20347 -1.047996,0.60909 -2.65134,0.60909 -1.173396,0 -2.239306,-0.39411 -1.379413,-0.50161 -1.379413,-1.39733 0,-0.35829 0.277674,-0.62701 0.286631,-0.26871 0.64492,-0.26871 0.277674,0 0.716578,0.42994 0.214974,0.20602 0.967381,0.34038 0.600134,0.10748 1.012166,0.10748 0.752407,0 1.32567,-0.17914 0.833022,-0.25976 0.833022,-0.82406 0,-1.21819 -1.701873,-1.64813 l -0.931552,-0.20602 q -1.191311,-0.25976 -1.692915,-0.60909 -0.725536,-0.50161 -0.725536,-1.51377 0,-1.87206 1.764574,-2.66926 0.537433,-0.24184 1.719787,-0.57326 1.182354,-0.34037 1.692916,-0.57326 0.367247,-0.16123 0.797193,-0.16123 0.385161,0 0.627006,0.2508 0.250803,0.2508 0.250803,0.65388 0,0.25976 0.107486,0.76136 0.116444,0.50161 0.116444,0.76137 0,0.40307 -0.250802,0.65387 -0.241845,0.25081 -0.627006,0.25081 z"
         id="path74" />
      <path
         style="font-size:15.1694px"
         d="m 93.316103,137.6404 q -0.155545,0 -0.370347,-0.0148 -0.207394,-0.0148 -0.362939,-0.0148 -0.17036,0 -1.007343,0.1111 l 0.140731,4.3775 0.0074,0.3259 0.0074,0.37776 q 0.02963,1.62211 -0.777728,1.62211 -0.296277,0 -0.518485,-0.19258 -0.214801,-0.19258 -0.214801,-0.48145 0,-0.28146 0.02222,-0.84439 0.02222,-0.56292 0.02222,-0.84439 l -0.148138,-4.32565 q -0.540706,-0.0222 -1.644339,-0.12591 -0.659218,-0.0889 -0.659218,-0.73329 0,-0.32591 0.199988,-0.54071 0.199987,-0.2148 0.511078,-0.2148 l 1.555456,0.12592 q 0,-0.37775 -0.03704,-1.00734 -0.02963,-0.637 -0.02963,-0.91846 0,-0.31109 0.214801,-0.51108 0.214801,-0.2074 0.525892,-0.2074 0.666624,0 0.777728,1.08882 0.02222,0.27406 0.02222,0.65922 l -0.01481,0.4296 -0.0074,0.45923 q 0.91846,-0.11851 1.051785,-0.11851 0.770321,0 1.007343,0.0741 0.451823,0.14814 0.451823,0.69625 0,0.32591 -0.207394,0.54071 -0.199988,0.20739 -0.518486,0.20739 z"
         id="path75" />
      <path
         style="font-size:19.4028px"
         d="m 103.1951,144.5764 q -0.18001,0 -0.65371,-0.41686 -0.42633,-0.38844 -0.63476,-0.6916 -0.9095,0.49264 -1.60111,0.73897 -0.691601,0.2558 -1.155828,0.2558 -2.216922,0 -3.230642,-1.25057 -0.956877,-1.17478 -0.956877,-3.60013 0,-2.29272 1.572688,-3.92225 1.582162,-1.62953 3.770659,-1.62953 0.82424,0 1.84744,0.42633 1.28846,0.53055 1.28846,1.27899 0,0.2558 -0.18948,0.45476 -0.0947,0.36001 -0.15158,1.18425 -0.0474,0.82424 -0.0568,2.11271 -0.009,1.17478 0.16105,1.85691 0.0947,0.41685 0.59687,1.66742 0.0663,0.17054 0.2179,0.50213 l 0.0568,0.16106 q 0,0.37896 -0.26527,0.62528 -0.26527,0.24633 -0.61581,0.24633 z m -1.9706,-6.58445 q 0,-0.40738 0.0474,-0.88108 0.0568,-0.48318 0.16106,-1.0232 -0.35054,-0.18 -0.60634,-0.26527 -0.24632,-0.0853 -0.39791,-0.0853 -1.468469,0 -2.539033,1.2032 -1.061091,1.19373 -1.061091,2.75694 0,1.55374 0.549493,2.33061 0.549494,0.77687 1.64848,0.77687 0.909507,0 1.544271,-0.33159 0.34106,-0.18 0.95687,-0.72002 -0.30317,-2.51062 -0.30317,-3.76119 z"
         id="path76" />
      <path
         style="font-size:15.875px"
         d="m 110.67095,137.34686 q -0.16278,0 -0.38757,-0.0155 -0.21704,-0.0155 -0.37982,-0.0155 -0.17828,0 -1.0542,0.11627 l 0.14728,4.58111 0.008,0.34107 0.008,0.39532 q 0.031,1.69757 -0.8139,1.69757 -0.31006,0 -0.54261,-0.20153 -0.22479,-0.20154 -0.22479,-0.50385 0,-0.29455 0.0233,-0.88367 0.0233,-0.58911 0.0233,-0.88366 l -0.15503,-4.52686 q -0.56586,-0.0232 -1.72082,-0.13177 -0.68988,-0.093 -0.68988,-0.7674 0,-0.34106 0.20928,-0.56586 0.20929,-0.22479 0.53486,-0.22479 l 1.6278,0.13178 q 0,-0.39533 -0.0387,-1.0542 -0.031,-0.66663 -0.031,-0.96118 0,-0.32556 0.22479,-0.53485 0.2248,-0.21705 0.55036,-0.21705 0.69763,0 0.8139,1.13947 0.0233,0.2868 0.0233,0.68988 l -0.0155,0.44959 -0.008,0.48059 q 0.96118,-0.12403 1.10071,-0.12403 0.80615,0 1.0542,0.0775 0.47284,0.15503 0.47284,0.72863 0,0.34107 -0.21704,0.56586 -0.20929,0.21704 -0.54261,0.21704 z"
         id="path77" />
      <path
         style="font-size:19.4028px"
         d="m 120.93563,138.41828 q 0,0.68213 0.009,2.04639 0.009,1.36426 0.009,2.04639 0,0.20843 0.0284,0.63476 0.0379,0.42633 0.0379,0.63476 0,0.40738 -0.27474,0.66318 -0.27475,0.26527 -0.67266,0.26527 -0.7295,0 -0.92845,-0.90003 -1.18426,0.61581 -2.72852,0.61581 -1.2411,0 -2.05587,-0.54949 -0.90003,-0.60634 -1.07056,-1.77164 -0.36949,-2.51062 -0.36949,-4.47174 0,-1.29794 0.28422,-2.9559 0.13264,-0.82424 0.90004,-0.82424 0.40738,0 0.68212,0.26527 0.27475,0.2558 0.27475,0.66319 0,0.4358 -0.14211,1.39268 -0.13264,0.95687 -0.13264,1.459 0,1.58216 0.10422,2.70957 0.10421,1.12741 0.31264,1.80954 0.31264,0.17053 0.61581,0.26527 0.30317,0.0853 0.59687,0.0853 1.26952,0 2.68115,-0.40739 l -0.009,-1.92322 -0.019,-1.83796 q 0,-2.04639 0.18001,-3.55276 0.10421,-0.87161 0.91898,-0.87161 0.40738,0 0.68213,0.26527 0.27475,0.26527 0.2558,0.66318 z m 8.75399,-1.76217 q -0.52107,0 -0.7295,-0.35054 -0.14211,-0.24632 -0.24632,-1.02319 -0.71055,0.18001 -2.1885,0.66318 -1.52532,0.60634 -1.53479,1.4969 0.28422,0.10421 0.55897,0.15158 2.17902,0.38844 3.24011,1.07057 1.54427,0.99477 1.54427,2.8801 0,1.54426 -1.33584,2.33061 -1.10846,0.64423 -2.80431,0.64423 -1.2411,0 -2.36851,-0.41685 -1.459,-0.53055 -1.459,-1.47795 0,-0.37896 0.2937,-0.66318 0.30317,-0.28422 0.68213,-0.28422 0.29369,0 0.75792,0.45475 0.22738,0.2179 1.0232,0.36001 0.63476,0.11369 1.07056,0.11369 0.79582,0 1.40216,-0.18948 0.88108,-0.27475 0.88108,-0.87161 0,-1.28847 -1.80006,-1.74322 l -0.9853,-0.2179 q -1.26005,-0.27475 -1.79059,-0.64424 -0.7674,-0.53054 -0.7674,-1.60111 0,-1.98007 1.86638,-2.82326 0.56844,-0.25579 1.81902,-0.60633 1.25057,-0.36002 1.79059,-0.60634 0.38843,-0.17053 0.84318,-0.17053 0.40739,0 0.66319,0.26527 0.26527,0.26527 0.26527,0.6916 0,0.27475 0.11369,0.80529 0.12316,0.53055 0.12316,0.8053 0,0.42633 -0.26527,0.6916 -0.2558,0.26527 -0.66319,0.26527 z"
         id="path78" />
    </g>
    <ellipse
       style="fill:#48ebff;fill-rule:evenodd;stroke:#000000;stroke-width:0;stroke-miterlimit:2.1;fill-opacity:1;filter:url(#filter39)"
       id="path20"
       cx="70.020447"
       cy="78.528923"
       rx="47.475834"
       ry="48.395912" />
    <text
       xml:space="preserve"
       style="font-style:normal;font-variant:normal;font-weight:normal;font-stretch:normal;font-size:85.9557px;font-family:Arial;-inkscape-font-specification:Arial;writing-mode:lr-tb;direction:ltr;fill:#ffffff;fill-rule:evenodd;stroke:#000000;stroke-width:0;stroke-miterlimit:2.1;filter:url(#filter5)"
       x="40.852692"
       y="113.43524"
       id="text20"
       transform="scale(1.0632905,0.94047675)"><tspan
         sodipodi:role="line"
         id="tspan20"
         style="fill:#ffffff;stroke-width:0"
         x="40.852692"
         y="113.43524">?</tspan></text>
  </g>
</svg>
